<svg xmlns="http://www.w3.org/2000/svg" width="37.882" height="37.882" viewBox="0 0 37.882 37.882">
  <path id="帮助" d="M80.535,50.022A18.941,18.941,0,1,0,99.476,68.963,18.941,18.941,0,0,0,80.535,50.022Zm1.279,30.734a1.279,1.279,0,0,1-2.558,0v-1.5a1.279,1.279,0,1,1,2.558,0Zm0-8.781v3.106a1.279,1.279,0,1,1-2.558,0V71.6a2.132,2.132,0,0,1,1.908-2.119,5.75,5.75,0,1,0-6.378-5.715,1.279,1.279,0,0,1-2.558,0,8.337,8.337,0,0,1,2.639-6.073,8.222,8.222,0,0,1,6.253-2.213,8.308,8.308,0,0,1,.695,16.5Z" transform="translate(-61.594 -50.022)" fill="#3997eb"/>
</svg>
