<svg id="设置选中" xmlns="http://www.w3.org/2000/svg" width="36.587" height="36.587" viewBox="0 0 36.587 36.587">
  <path id="路径_35" data-name="路径 35" d="M102.574,103.074m-17.474,0A17.474,17.474,0,1,0,102.574,85.6,17.474,17.474,0,0,0,85.1,103.074Z" transform="translate(-84.28 -84.78)" fill="#ff7a4e"/>
  <path id="路径_36" data-name="路径 36" d="M83.394,102.187a18.26,18.26,0,1,1,7.12-1.439A18.16,18.16,0,0,1,83.394,102.187Zm0-34.948a16.654,16.654,0,1,0,16.654,16.654A16.675,16.675,0,0,0,83.394,67.24Z" transform="translate(-65.1 -65.6)" fill="#ff7a4e"/>
  <path id="路径_37" data-name="路径 37" d="M308.927,280.686a2.454,2.454,0,0,1,.049-2.9l.635-.836a2.457,2.457,0,0,0-2.185-3.931l-1.045.1a2.461,2.461,0,0,1-2.492-1.492l-.406-.967a2.458,2.458,0,0,0-4.5-.074l-.439.955a2.456,2.456,0,0,1-2.537,1.41l-1.041-.131a2.457,2.457,0,0,0-2.312,3.857l.607.857a2.454,2.454,0,0,1-.049,2.9l-.635.836a2.457,2.457,0,0,0,2.185,3.931l1.045-.094A2.461,2.461,0,0,1,298.3,286.6l.406.967a2.457,2.457,0,0,0,4.5.074l.439-.955a2.456,2.456,0,0,1,2.537-1.41l1.041.131a2.461,2.461,0,0,0,2.312-3.861ZM301,284.265a5.255,5.255,0,1,1,5.255-5.255A5.255,5.255,0,0,1,301,284.265Z" transform="translate(-282.772 -260.811)" fill="#fff"/>
  <path id="路径_38" data-name="路径 38" d="M392.01,386.655a5.255,5.255,0,1,1-5.255-5.255A5.255,5.255,0,0,1,392.01,386.655Z" transform="translate(-368.531 -368.455)" fill="#ff7a4e"/>
  <path id="路径_39" data-name="路径 39" d="M392.01,386.655a5.255,5.255,0,1,1-5.255-5.255A5.255,5.255,0,0,1,392.01,386.655Z" transform="translate(-368.531 -368.455)" fill="#ff7a4e"/>
</svg>
