<svg xmlns="http://www.w3.org/2000/svg" width="13.841" height="13.818" viewBox="0 0 13.841 13.818">
  <g id="组_16" data-name="组 16" transform="translate(-219 -578)">
    <rect id="矩形_9" data-name="矩形 9" width="11.932" height="12.337" transform="translate(219.955 578.955)" fill="#5fb75f"/>
    <g id="厨余垃圾" transform="translate(219 578)">
      <path id="路径_47" data-name="路径 47" d="M273.683,273.076a5.864,5.864,0,0,1-.371,2.434l-.672-.3a4.936,4.936,0,0,0,.371-2.04v-1.692h3.709v.649h-3.037Zm3.13.162h-.232v1.692c0,.417-.139.51-.6.556l-.3.023-.232-.719.278-.023c.139-.023.232-.07.232-.209v-.185l-.394.185c-.046-.162-.185-.487-.278-.765v.348h-.3l.325.139c-.046.116-.139.278-.209.441a1.13,1.13,0,0,1,.278-.023l-.023.626c-.371.023-1.345.07-1.669.116l-.046-.649c.116,0,.232-.023.371-.023-.07-.162-.162-.371-.209-.464l.394-.185h-.348V272.96h1.437v.556l.371-.116c.07.139.209.464.3.7v-.881h-.51v-.7h.51v-.325h.626v.325h.232Zm-2.991-.394v-.6h1.484v.6Zm.649,1.9c.07-.162.185-.44.278-.6h-.44c.07.116.162.325.232.44l-.348.185Zm-.116-1.09h.394v-.232h-.394Zm5.193.394v.811c0,.51-.139.626-.6.649l-.371.023-.232-.719.255-.023c.185-.023.255-.07.255-.255v-.487h-.765l.487.44a10.084,10.084,0,0,1-1.043.9l-.44-.556a5.485,5.485,0,0,0,.974-.811h-.788v-.7h1.553v-.278h-.881V272.8c-.139.07-.3.139-.464.209l-.348-.672a4.032,4.032,0,0,0,1.646-.974h.788a4.028,4.028,0,0,0,1.623.974l-.325.7a4.638,4.638,0,0,1-.487-.232v.255h-.835v.278h1.53v.7h-1.53Zm-.927-1.623h1.136a3.388,3.388,0,0,1-.58-.44,5.827,5.827,0,0,1-.556.44Zm1.461,1.669a12.867,12.867,0,0,1,1.113.672l-.394.649a10.117,10.117,0,0,0-1.136-.788Zm-3.292,5.24v.672h-2.643v-.58c-.394.116-1.02.278-1.275.348l-.139-.765c.093-.023.255-.07.487-.116v-1.136h-.371v-.742h.371V275.95l.672.023v1.066h.348v.742h-.348v.951a3.315,3.315,0,0,0,.417-.116l.046.719h1.275l-.3-.093a3.193,3.193,0,0,0,.139-.371l-.58.209c-.139-.51-.325-1.159-.464-1.53l.649-.185c.139.394.3.927.44,1.391a13.736,13.736,0,0,0,.394-1.414l.719.209c-.162.51-.394,1.275-.6,1.785Zm-.093-2.156h-2.411v-.7h.858c-.046-.185-.093-.44-.116-.556h.788c.046.162.093.417.116.556h.788v.7Zm4.127,2.875a5.506,5.506,0,0,1-.765-.6,4.082,4.082,0,0,1-.835.6l-.371-.417c-.07.139-.162.278-.255.44l-.6-.348.139-.209c-.325.093-.742.185-.951.232l-.116-.765c.07-.023.232-.046.441-.093v-1.113h-.3v-.765h.325v-1.09l.672.023v1.066h.278v.765H278.2v.951l.232-.046a1.136,1.136,0,0,1,.023.3,4.5,4.5,0,0,0,.3-1.623v-.58h-.278v-.672h2.3v.719l-.255.441h.487v.672a3.978,3.978,0,0,1-.51,1.043,4.269,4.269,0,0,0,.719.464Zm-1.182-1.09a2.341,2.341,0,0,1-.325-.58,4.134,4.134,0,0,1-.3,1.043A6.244,6.244,0,0,0,279.642,278.964Zm-.255-2.2v.162a4.1,4.1,0,0,0,.672,1.53,2.444,2.444,0,0,0,.3-.6h-.58V277.3l.3-.556h-.7Z" transform="translate(-270.067 -268.81)" fill="#fff"/>
      <path id="路径_48" data-name="路径 48" d="M141.827,144.378H133.11a2.558,2.558,0,0,1-2.55-2.55V133.11a2.558,2.558,0,0,1,2.55-2.55h8.416V132h1.437v1.437H144.4v8.416A2.573,2.573,0,0,1,141.827,144.378Zm-8.717-12.844a1.578,1.578,0,0,0-1.576,1.576v8.717a1.578,1.578,0,0,0,1.576,1.576h8.717a1.578,1.578,0,0,0,1.576-1.576v-7.442h-1.437v-1.437h-1.437v-1.437H133.11Z" transform="translate(-130.56 -130.56)" fill="#fff"/>
    </g>
  </g>
</svg>
