<svg xmlns="http://www.w3.org/2000/svg" width="37.942" height="36.587" viewBox="0 0 37.942 36.587">
  <g id="任务" transform="translate(-62 -78.071)">
    <path id="路径_40" data-name="路径 40" d="M67.42,174.5h27.1a5.436,5.436,0,0,1,5.42,5.42v23.714a3.355,3.355,0,0,1-3.388,3.388H67.42A5.436,5.436,0,0,1,62,201.6V179.92A5.436,5.436,0,0,1,67.42,174.5Z" transform="translate(0 -92.364)" fill="#ffbb96"/>
    <path id="路径_41" data-name="路径 41" d="M67.42,174.5h27.1a5.436,5.436,0,0,1,5.42,5.42v16.939l-5.42,4.878-.136.136-5.42,5.149H67.42A5.436,5.436,0,0,1,62,201.6V179.92a5.436,5.436,0,0,1,5.42-5.42Z" transform="translate(0 -92.364)" fill="#cf5a1a"/>
    <path id="路径_42" data-name="路径 42" d="M67.42,174.5h27.1a5.436,5.436,0,0,1,5.42,5.42v16.939H92.489a3.355,3.355,0,0,0-3.388,3.388v6.775H67.42A5.436,5.436,0,0,1,62,201.6V179.92A5.436,5.436,0,0,1,67.42,174.5Z" transform="translate(0 -92.364)" fill="#ff7a45"/>
    <path id="路径_43" data-name="路径 43" d="M320.5,78.071a1.28,1.28,0,0,1,1.355,1.355V85.66a1.355,1.355,0,1,1-2.71,0V79.426a1.28,1.28,0,0,1,1.355-1.355Zm13.551,0a1.28,1.28,0,0,1,1.355,1.355V85.66a1.355,1.355,0,1,1-2.71,0V79.426a1.28,1.28,0,0,1,1.355-1.355Z" transform="translate(-246.302 0)" fill="#ffbb96"/>
    <path id="路径_44" data-name="路径 44" d="M289.032,449.747m-2.033,0a2.033,2.033,0,1,0,2.033-2.033A2.033,2.033,0,0,0,287,449.747Z" transform="translate(-215.514 -354.06)" fill="#ffbb96"/>
    <path id="路径_45" data-name="路径 45" d="M481.212,463.786h8.131a1.355,1.355,0,0,1,0,2.71h-8.131a1.355,1.355,0,0,1,0-2.71Zm0,6.775h8.131a1.355,1.355,0,0,1,0,2.71h-8.131a1.355,1.355,0,1,1,0-2.71Z" transform="translate(-400.241 -369.454)" fill="#ffbb96"/>
    <path id="路径_46" data-name="路径 46" d="M289.032,610.461m-2.033,0a2.033,2.033,0,1,0,2.033-2.033A2.033,2.033,0,0,0,287,610.461Z" transform="translate(-215.514 -507.999)" fill="#ffbb96"/>
  </g>
</svg>
