<svg xmlns="http://www.w3.org/2000/svg" width="37.347" height="37.349" viewBox="0 0 37.347 37.349">
  <g id="员工反馈" transform="translate(-74.445 -71.014)">
    <path id="路径_17" data-name="路径 17" d="M93.118,89.738m-18.673,0A18.673,18.673,0,1,0,93.118,71.065,18.673,18.673,0,0,0,74.445,89.738Z" transform="translate(0 -0.048)" fill="#2c8fea"/>
    <path id="路径_18" data-name="路径 18" d="M109.156,83.32a20.966,20.966,0,0,0-.321-3.661,18.67,18.67,0,1,0-29.927,22.187A20.8,20.8,0,0,0,109.156,83.32Z" transform="translate(-0.001 -0.049)" fill="#3d99ec"/>
    <path id="路径_19" data-name="路径 19" d="M74.445,89.738a18.955,18.955,0,0,0,.25,3.04,18.023,18.023,0,0,0,26.978-15.642,18.161,18.161,0,0,0-.508-4.252A18.678,18.678,0,0,0,74.445,89.738Z" transform="translate(0 -0.048)" fill="#5eaff0"/>
    <path id="路径_20" data-name="路径 20" d="M86.733,85.316a14.177,14.177,0,0,0,18.4-13.522c0-.258-.009-.517-.022-.773-.074,0-.148-.007-.224-.007a18.681,18.681,0,0,0-18.152,14.3Z" transform="translate(-11.767)" fill="#8bcaf6"/>
    <path id="路径_21" data-name="路径 21" d="M385.337,239.03l-3.166-3.294a.875.875,0,0,0-.615-.267.866.866,0,0,0-.621.25l-11.574,11.414a.859.859,0,0,0-.211.334l-1.792,5.179a.869.869,0,0,0,1.175,1.077l5.149-2.3a.915.915,0,0,0,.25-.167l11.383-11a.869.869,0,0,0,.022-1.225Zm-14.975,10.248,1.288,1.151-2,.893Zm2.871.237-2-1.787,8.052-7.941,1.972,1.972Zm9.277-8.962-1.985-1.985,1.005-.99,1.954,2.035-.975.94Z" transform="translate(-280.444 -157.479)" fill="#fff"/>
    <path id="路径_22" data-name="路径 22" d="M276.6,256.578a.868.868,0,0,0-.869.869v11.179a1.387,1.387,0,0,1-1.383,1.385c-3.594,0-10.7,0-16.018,0a1.362,1.362,0,0,1-1.359-1.359c0-5.333-.007-12.454,0-16.083a1.387,1.387,0,0,1,1.385-1.383H268.8a.869.869,0,0,0,0-1.737H258.353a3.127,3.127,0,0,0-3.123,3.118c0,3.629,0,10.749,0,16.085a3.1,3.1,0,0,0,3.094,3.094c3.305,0,7.294,0,10.706,0,2.085,0,3.952,0,5.316,0a3.127,3.127,0,0,0,3.118-3.123V257.447a.87.87,0,0,0-.869-.869Z" transform="translate(-173.115 -170.864)" fill="#fff"/>
  </g>
</svg>
