<svg xmlns="http://www.w3.org/2000/svg" width="36.93" height="36.932" viewBox="0 0 36.93 36.932">
  <g id="考勤管理" transform="translate(-76.851 -70.143)">
    <path id="路径_10" data-name="路径 10" d="M95.316,88.66m-18.465,0A18.465,18.465,0,1,0,95.316,70.195,18.465,18.465,0,0,0,76.851,88.66Z" transform="translate(0 -0.049)" fill="#ff8e29"/>
    <path id="路径_11" data-name="路径 11" d="M111.174,82.314a20.733,20.733,0,0,0-.318-3.62,18.461,18.461,0,1,0-29.592,21.937,20.568,20.568,0,0,0,29.91-18.317Z" transform="translate(0 -0.049)" fill="#ff9f3e"/>
    <path id="路径_12" data-name="路径 12" d="M76.851,88.66a18.743,18.743,0,0,0,.247,3.006A17.821,17.821,0,0,0,103.774,76.2a17.959,17.959,0,0,0-.5-4.2A18.469,18.469,0,0,0,76.851,88.66Z" transform="translate(0 -0.049)" fill="#ffbc65"/>
    <path id="路径_13" data-name="路径 13" d="M89.139,84.286a14.019,14.019,0,0,0,18.192-13.371c0-.256-.009-.511-.021-.764-.073,0-.146-.006-.221-.006a18.473,18.473,0,0,0-17.95,14.142Z" transform="translate(-11.773)" fill="#ffd07f"/>
    <path id="路径_14" data-name="路径 14" d="M438.67,263.913h5.375a.859.859,0,0,0,0-1.718H438.67a.859.859,0,1,0,0,1.718Z" transform="translate(-345.821 -183.997)" fill="#fff"/>
    <path id="路径_15" data-name="路径 15" d="M269.809,262.195h-1.28a.859.859,0,1,0,0,1.718h1.28a.716.716,0,0,1,.715.713v16a.714.714,0,0,1-.715.713H251.93a.716.716,0,0,1-.715-.713v-16a.714.714,0,0,1,.715-.713h1.2a.859.859,0,1,0,0-1.718h-1.2a2.435,2.435,0,0,0-2.433,2.431v16a2.435,2.435,0,0,0,2.433,2.431h17.879a2.434,2.434,0,0,0,2.433-2.431v-16A2.437,2.437,0,0,0,269.809,262.195Z" transform="translate(-165.406 -183.997)" fill="#fff"/>
    <path id="路径_16" data-name="路径 16" d="M374.158,217.064a.859.859,0,0,0,.859-.859V211.5a.859.859,0,1,0-1.718,0v4.709a.86.86,0,0,0,.859.859Zm10.483,0a.859.859,0,0,0,.859-.859V211.5a.859.859,0,0,0-1.718,0v4.709a.86.86,0,0,0,.859.859Zm-.077,4.134-3.058,3.084L379.333,222a1.509,1.509,0,0,0-1.082-.47h-.021a1.52,1.52,0,0,0-1.074.442l-3.322,3.294a.859.859,0,0,0,1.211,1.22l3.18-3.154,2.173,2.276a1.509,1.509,0,0,0,1.087.472h.015a1.51,1.51,0,0,0,1.082-.451l3.2-3.225a.859.859,0,1,0-1.218-1.211Z" transform="translate(-284.015 -134.601)" fill="#fff"/>
  </g>
</svg>
