<svg id="短信" xmlns="http://www.w3.org/2000/svg" width="37.349" height="37.349" viewBox="0 0 37.349 37.349">
  <path id="路径_23" data-name="路径 23" d="M18.674,0A18.674,18.674,0,1,0,37.349,18.674,18.674,18.674,0,0,0,18.674,0Zm8.559,22.417a2.863,2.863,0,0,1-2.856,2.856H12.971a2.863,2.863,0,0,1-2.856-2.856V14.932a2.863,2.863,0,0,1,2.856-2.856H24.378a2.863,2.863,0,0,1,2.856,2.856Z" fill="#5fb75f"/>
  <path id="路径_24" data-name="路径 24" d="M330.061,378.027l-5.143,4.49a2.148,2.148,0,0,1-2.817,0l-5.143-4.49a1.44,1.44,0,0,0-.584,1.144v.249l4.14,3.6-4.069,4.015a1.432,1.432,0,0,0,1.027,1l4.046-3.992a.513.513,0,0,0,.093-.132,3.564,3.564,0,0,0,3.813,0,.514.514,0,0,0,.093.132l4.046,3.992a1.432,1.432,0,0,0,1.027-1l-4.069-4.015,4.14-3.6v-.249a1.439,1.439,0,0,0-.6-1.144Z" transform="translate(-304.835 -364.239)" fill="#5fb75f"/>
</svg>
